<?xml version="1.0" encoding="UTF-8"?>
<svg width="128px" height="128px" viewBox="0 0 128 128" version="1.1" xmlns="http://www.w3.org/2000/svg" xmlns:xlink="http://www.w3.org/1999/xlink">
    <title>colormeup</title>
    <defs>
        <path d="M118.389219,97.7460393 C118.329367,97.8436022 118.269156,97.9408687 118.208582,98.0378338 L118.208157,98.0386822 C113.935589,105.15963 108.808422,110.856812 102.542072,115.413964 C96.5603063,119.971541 89.7239421,123.389087 82.3184109,125.382867 C74.9124556,127.377072 67.5069243,128.231246 59.8159616,127.946663 C52.1254226,127.377072 44.7194671,125.952882 37.5985195,123.104079 C30.4779957,120.256124 23.9262149,116.268139 18.5144643,110.856388 C12.8172819,105.444638 8.54513735,98.8928567 5.12716724,91.2023178 C1.70919711,83.2267716 0,74.1116189 0,63.8577087 C0,53.603374 1.70919711,44.4886458 5.12716724,36.7976828 C8.54513735,29.1071441 13.1027136,22.5562115 18.5144643,17.1440367 C24.2116467,11.7318619 30.4779957,7.74387666 37.5985195,4.89592165 C44.7194671,2.04754254 52.1258467,0.338345426 59.8159616,0.0533378673 C67.5069243,-0.231245574 74.9120313,0.622928867 82.3184109,2.61670942 C89.7239421,4.61048998 96.5603063,8.02846009 102.542072,12.5860363 C108.523414,17.1436125 113.935589,22.8403708 117.923574,29.9613186 C118.006292,30.0992446 118.088335,30.2376302 118.169715,30.3764661 L87.3383503,48.1768432 C86.1774915,46.0314125 84.7895255,44.1105328 83.1730095,42.4940171 C80.0396226,39.3606304 76.3370694,37.0822664 72.3490839,35.6576526 C68.3610986,34.2334632 64.0889541,33.9488795 59.8163856,34.5184709 C55.543817,35.0884858 51.5562558,36.5122515 47.8532783,38.7914634 C44.1503005,41.0702517 41.3014973,44.4882217 39.0231333,48.7603663 C36.744345,53.0329349 35.605163,58.1601022 35.605163,64.141868 C35.605163,70.1236339 36.744345,75.2508011 39.0231333,79.5237936 C41.3019213,83.7959382 44.4348837,87.2139085 47.8532783,89.4922724 C51.5558315,91.7714848 55.543817,93.4806818 59.8163856,93.7652654 C64.0889541,94.3348563 68.3615227,94.0502729 72.3490839,92.6260832 C76.3370694,91.2018935 80.0400469,88.9235297 83.1730095,85.7897187 C84.8447348,84.1179936 86.2722353,82.1213819 87.4568135,79.887174 L118.389219,97.7460393 Z" id="path-1"></path>
    </defs>
    <g transform="translate(4.805390, 0.000000)">
        <mask id="mask-2" fill="white">
            <use xlink:href="#path-1"></use>
        </mask>
        <g mask="url(#mask-2)">
            <g transform="translate(-21.548487, -16.736026)">
                <path d="M10.8249097,40.4127787 C3.94109558,52.3041785 0,66.111982 0,80.8405827 L80.8122006,80.8405827 L10.8249097,40.4127787 Z" fill="#FF0044"></path>
                <path d="M40.405015,10.8402235 C28.4976836,17.6965615 18.1807364,27.6837951 10.816436,40.4391927 L80.9275774,80.9280215 L40.405015,10.8402235 Z" fill="#E50047"></path>
                <path d="M80.8349894,1.0658141e-14 C67.0935034,-0.0154381644 53.1638219,3.47465306 40.4071856,10.8378268 L80.817209,80.8125629 L80.8349894,1.0658141e-14 Z" fill="#CC003F"></path>
                <path d="M121.239866,10.8316575 C109.348466,3.94784332 95.5406628,0.00674774173 80.8120621,0.00674774173 L80.8120621,80.8189482 L121.239866,10.8316575 Z" fill="#B20037"></path>
                <path d="M150.81727,40.433513 C143.960932,28.5261813 133.973699,18.2092341 121.218301,10.8449337 L80.8122006,80.8301467 L150.81727,40.433513 Z" fill="#99002F"></path>
                <path d="M161.652708,80.8387128 C161.668149,67.0985603 158.177516,53.1702315 150.813202,40.4148336 L80.8276243,80.820703 L161.652708,80.8387128 Z" fill="#7F0027"></path>
                <path d="M150.841398,121.251463 C157.724981,109.360063 161.666308,95.552259 161.666308,80.8236584 L161.648529,80.8236584 L80.8541074,80.8236584 L80.8541074,80.8442077 L150.841398,121.251463 Z" fill="#FF99B9"></path>
                <path d="M121.261293,150.824133 C133.168393,143.967795 143.485572,133.980562 150.849641,121.225164 L150.834402,121.216159 L80.8644283,80.8188329 L80.854038,80.8368424 L121.261293,150.824133 Z" fill="#FF80A7"></path>
                <path d="M80.8351281,161.664086 C94.5752803,161.679749 108.503609,158.188887 121.259007,150.824802 L121.250002,150.809102 L80.8529066,80.8392205 L80.8351281,80.8493801 L80.8351281,161.664086 Z" fill="#FF6695"></path>
                <path d="M40.4262109,150.832699 C52.3176109,157.716283 66.1254144,161.657609 80.8540151,161.657609 L80.8540151,161.639831 L80.8540151,80.8454085 L80.8332348,80.8454085 L40.4262109,150.832699 Z" fill="#FF4D84"></path>
                <path d="M10.8489225,121.230728 C17.7052604,133.13806 27.6924937,143.455007 40.4478916,150.819308 L40.4568963,150.804069 L80.853992,80.8340947 L80.836213,80.8237046 L10.8489225,121.230728 Z" fill="#FF3372"></path>
                <path d="M0.0134845357,80.8256442 C-0.00195602067,94.5657964 3.48867596,108.494125 10.8529905,121.249523 L10.8684603,121.240749 L80.8385683,80.8436537 L80.8284093,80.8256442 L0.0134845357,80.8256442 Z" fill="#FF1A61"></path>
            </g>
        </g>
    </g>
</svg>
