<?xml version="1.0" encoding="UTF-8"?>
<svg width="16px" height="16px" viewBox="0 0 16 16" version="1.1" xmlns="http://www.w3.org/2000/svg" preserveAspectRatio="xMidYMid">
    <g>
        <path d="M9.54544747,11.5804158 C9.04690246,11.7584727 8.51272437,11.7940522 7.97854628,11.7228401 C7.44436819,11.6872605 6.94577016,11.4735711 6.48285823,11.1886166 C6.05547334,10.903768 5.66377456,10.4764422 5.37886897,9.94232476 C5.09396339,9.40810123 4.95153711,8.76708601 4.95153711,8.01922609 C4.95153711,7.27136617 5.09396339,6.63035096 5.37886897,6.09618045 C5.66372153,5.56206297 6.01989328,5.13473716 6.48285823,4.84983562 C6.94582318,4.56488106 7.44436819,4.38687724 7.97854628,4.31561209 C8.51272437,4.24439996 9.04684943,4.27997951 9.54544747,4.45803635 C10.0440455,4.63614621 10.5069574,4.92099473 10.8987092,5.31274098 C11.1782593,5.59228703 11.4031401,5.94463595 11.5738289,6.34338145 L15.4448437,4.10849774 C15.3813192,3.98516236 15.3143481,3.86416006 15.2434001,3.74586203 C14.7448021,2.85557785 14.0681447,2.14335051 13.3203272,1.57354742 C12.5724566,1.00374434 11.7177399,0.576418535 10.791863,0.327149569 C9.86588008,0.077880604 8.94005624,-0.0289110778 7.97849325,0.00666847459 C7.01703632,0.0423010516 6.0910534,0.255990465 5.20075658,0.612104137 C4.31051279,0.968164784 3.5270622,1.46675574 2.81477172,2.14340353 C2.13816735,2.82005132 1.56835618,3.63907035 1.14102431,4.60056666 C0.713692446,5.56211599 0.5,6.70166914 0.5,7.98369956 C0.5,9.26567697 0.713692446,10.4052831 1.14102431,11.402412 C1.56835618,12.3639083 2.10248124,13.1830334 2.81477172,13.8596282 C3.49137609,14.5362229 4.31051279,15.0348139 5.20075658,15.3908745 C6.0910534,15.7470412 7.0169833,15.9250981 7.97849325,15.9963102 C8.94005624,16.0318898 9.86593311,15.9250981 10.791863,15.6757761 C11.7177399,15.4265071 12.5724566,14.9992343 13.3203272,14.4294313 C14.1037778,13.8596812 14.7448021,13.1474008 15.2789802,12.2571167 C15.3498221,12.1436969 15.4166342,12.0270956 15.4799995,11.9076311 L11.5884109,9.6608168 C11.4160252,10.0737199 11.1862661,10.4381584 10.8987092,10.7257112 C10.5070104,11.1175105 10.0440455,11.402359 9.54544747,11.5804158 Z" fill="#000000" fill-rule="nonzero"></path>
    </g>
</svg>
