<?xml version="1.0" encoding="UTF-8"?>
<svg width="512px" height="512px" viewBox="0 0 512 512" version="1.1" xmlns="http://www.w3.org/2000/svg" xmlns:xlink="http://www.w3.org/1999/xlink" preserveAspectRatio="xMidYMid">
    <defs>
        <path d="M130,0 C58.203,0 0,58.203 0,129.999 L0,381.999 C0,453.797 58.203,512 130,512 L382,512 C453.797,512 512,453.797 512,381.999 L512,129.999 C512,58.203 453.797,0 382,0 L130,0 Z" id="path-1"></path>
    </defs>
		<g>
				<mask id="mask-2" fill="white">
						<use xlink:href="#path-1"></use>
				</mask>
				<g id="wheel" mask="url(#mask-2)">
						<g transform="translate(-88.000000, -90.000000)">
								<path d="M46.8164194,174.777618 C17.0449501,226.206148 0.00029957204,285.922839 0.00029957204,349.62184 L349.501013,349.62184 L46.8164194,174.777618 Z" fill="#FF0044"></path>
								<path d="M174.745963,46.8807275 C123.248531,76.5333666 78.6292725,119.726662 46.7797718,174.891854 L350,350 L174.745963,46.8807275 Z" fill="#E50047"></path>
								<path d="M349.599572,-5.50944547e-05 C290.169694,-0.0677195817 229.925899,15.0263754 174.75535,46.8709422 L349.522674,349.500658 L349.599572,-5.50944547e-05 Z" fill="#CC003F"></path>
								<path d="M524.344636,46.8436805 C472.916106,17.0722111 413.199415,0.0275606277 349.500414,0.0275606277 L349.500414,349.528274 L524.344636,46.8436805 Z" fill="#B20037"></path>
								<path d="M652.262496,174.86729 C622.609857,123.369857 579.416562,78.7505991 524.251369,46.9010984 L349.501013,349.576705 L652.262496,174.86729 Z" fill="#99002F"></path>
								<path d="M699.122582,349.613752 C699.190257,290.189643 684.093823,229.951698 652.244322,174.786505 L349.567718,349.535863 L699.122582,349.613752 Z" fill="#7F0027"></path>
								<path d="M652.366847,524.392867 C682.137318,472.964337 699.182967,413.247646 699.182967,349.548645 L699.106077,349.548645 L349.682254,349.548645 L349.682254,349.637518 L652.366847,524.392867 Z" fill="#FF99B9"></path>
								<path d="M524.437304,652.290257 C575.933738,622.637618 620.553994,579.444322 652.402496,524.27913 L652.336591,524.240185 L349.72689,349.527775 L349.681954,349.605663 L524.437304,652.290257 Z" fill="#FF80A7"></path>
								<path d="M349.600171,699.169821 C409.02428,699.238488 469.262225,684.141056 524.427418,652.292553 L524.388474,652.22465 L349.677061,349.615949 L349.600171,349.659886 L349.600171,699.169821 Z" fill="#FF6695"></path>
								<path d="M174.837632,652.327304 C226.266163,682.097775 285.982853,699.143424 349.681854,699.143424 L349.681854,699.066534 L349.681854,349.64271 L349.591983,349.64271 L174.837632,652.327304 Z" fill="#FF4D84"></path>
								<path d="M46.920271,524.303195 C76.5729101,575.800628 119.766205,620.419886 174.931398,652.269387 L174.970342,652.203481 L349.681755,349.59378 L349.604864,349.548845 L46.920271,524.303195 Z" fill="#FF3372"></path>
								<path d="M0.0601856701,349.557233 C-0.007489301,408.981341 15.0889444,469.219287 46.9384451,524.384479 L47.0053495,524.346534 L349.61505,349.635121 L349.571113,349.557233 L0.0601856701,349.557233 Z" fill="#FF1A61"></path>
						</g>
				</g>
				<path d="M303.3486,311.077765 C295.9616,318.466765 287.2306,323.838765 277.8276,327.196765 C268.4256,330.554765 258.3516,331.225765 248.2776,329.882765 C238.2036,329.211765 228.8006,325.181765 220.0706,319.807765 C212.0106,314.435765 204.6236,306.376765 199.2506,296.303765 C193.8776,286.228765 191.1916,274.139765 191.1916,260.035765 C191.1916,245.931765 193.8776,233.842765 199.2506,223.768765 C204.6226,213.695765 211.3396,205.636765 220.0706,200.263765 C228.8016,194.889765 238.2036,191.532765 248.2776,190.188765 C258.3516,188.845765 268.4246,189.516765 277.8276,192.874765 C287.2306,196.233765 295.9606,201.605765 303.3486,208.993765 C308.6206,214.265765 312.8616,220.910765 316.0806,228.430765 L389.0836,186.282765 C387.8856,183.956765 386.6226,181.674765 385.2846,179.443765 C375.8816,162.653765 363.1206,149.221765 349.0176,138.475765 C334.9136,127.729765 318.7946,119.670765 301.3336,114.969765 C283.8706,110.268765 266.4106,108.254765 248.2766,108.925765 C230.1446,109.597765 212.6816,113.627765 195.8916,120.343765 C179.1026,127.058765 164.3276,136.461765 150.8946,149.222765 C138.1346,161.983765 127.3886,177.429765 119.3296,195.562765 C111.2706,213.696765 107.2406,235.187765 107.2406,259.365765 C107.2406,283.542765 111.2706,305.034765 119.3296,323.839765 C127.3886,341.972765 137.4616,357.420765 150.8946,370.180765 C163.6546,382.940765 179.1026,392.343765 195.8916,399.058765 C212.6816,405.775765 230.1436,409.133765 248.2766,410.476765 C266.4106,411.147765 283.8716,409.133765 301.3336,404.431765 C318.7946,399.730765 334.9136,391.672765 349.0176,380.926765 C363.7926,370.181765 375.8816,356.748765 385.9556,339.958765 L385.9566,339.956765 C387.2916,337.819765 388.5516,335.620765 389.7466,333.367765 L316.3556,290.994765 C313.1046,298.781765 308.7716,305.654765 303.3486,311.077765" fill-opacity="0.4" fill="#FFFFFF" mask="url(#mask-2)"></path>
		</g>
</svg>
