<svg width="128" height="35" viewBox="0 0 128 35" xmlns="http://www.w3.org/2000/svg" ><title>github</title><g fill="#11110F"><path d="M24.615 14.999h-10.739c-.277 0-.502.228-.502.508v5.312c0 .28.225.508.502.508h4.189v6.6s-.941.324-3.541.324c-3.068 0-7.355-1.134-7.355-10.67 0-9.538 4.463-10.793 8.653-10.793 3.627 0 5.19.646 6.184.957.312.097.601-.218.601-.498l1.198-5.133c0-.131-.044-.289-.192-.397-.404-.291-2.867-1.686-9.09-1.686-7.169 0-14.523 3.086-14.523 17.921 0 14.835 8.42 17.046 15.515 17.046 5.875 0 9.438-2.54 9.438-2.54.147-.082.163-.29.163-.385v-16.568c0-.28-.225-.508-.502-.508"/><path d="M79.96 1.811c0-.283-.221-.511-.498-.511h-6.047c-.276 0-.501.228-.501.511l.002 11.823h-9.425v-11.823c0-.283-.222-.511-.499-.511h-6.047c-.275 0-.499.228-.499.511v32.012c0 .282.224.512.499.512h6.047c.276 0 .499-.23.499-.512v-13.693h9.425l-.016 13.693c0 .282.224.512.501.512h6.061c.277 0 .498-.23.499-.512v-32.012"/><path d="M36.025 6.012c0-2.203-1.746-3.983-3.899-3.983-2.152 0-3.899 1.78-3.899 3.983 0 2.2 1.747 3.985 3.899 3.985 2.154 0 3.899-1.785 3.899-3.985"/><path d="M35.593 27.071v-14.777c0-.281-.224-.51-.5-.51h-6.028c-.276 0-.524.289-.524.569v21.171c0 .622.383.807.879.807h5.431c.596 0 .742-.296.742-.817v-6.443"/><path d="M102.941 11.832h-6.001c-.275 0-.499.229-.499.512v15.697s-1.524 1.128-3.688 1.128c-2.163 0-2.738-.993-2.738-3.137v-13.688c0-.282-.224-.512-.499-.512h-6.09c-.275 0-.5.229-.5.512v14.725c0 6.366 3.507 7.924 8.332 7.924 3.958 0 7.149-2.212 7.149-2.212s.152 1.166.221 1.304c.069.138.248.277.441.277l3.874-.017c.275 0 .5-.23.5-.511l-.002-21.489c0-.282-.224-.512-.501-.512"/><path d="M116.974 29.149c-2.081-.064-3.493-1.02-3.493-1.02v-10.138s1.393-.864 3.102-1.018c2.161-.196 4.243.465 4.243 5.68 0 5.499-.94 6.585-3.851 6.496zm2.367-18.037c-3.408 0-5.726 1.538-5.726 1.538v-10.84c0-.283-.223-.511-.499-.511h-6.064c-.276 0-.5.228-.5.511v32.012c0 .282.224.512.501.512h4.207c.189 0 .333-.099.439-.272.105-.172.255-1.476.255-1.476s2.48 2.377 7.174 2.377c5.511 0 8.671-2.828 8.671-12.696s-5.047-11.157-8.458-11.157z"/><path d="M52.972 11.781h-4.536l-.007-6.063c0-.229-.117-.344-.379-.344h-6.181c-.24 0-.369.107-.369.341v6.265s-3.098.757-3.307.818c-.209.061-.362.256-.362.488v3.937c0 .283.224.512.5.512h3.169v9.471c0 7.035 4.877 7.726 8.169 7.726 1.504 0 3.303-.489 3.6-.6.18-.067.284-.255.284-.459l.005-4.331c0-.282-.236-.511-.501-.511-.264 0-.94.109-1.637.109-2.228 0-2.983-1.048-2.983-2.405v-9h4.536c.276 0 .5-.228.5-.512v-4.931c0-.282-.224-.51-.5-.51"/></g></svg>