<svg xmlns="http://www.w3.org/2000/svg" width="744.094" height="1052.362"><g><path d="M437.634 257.885l-133.674-.043-66.8-115.786 66.874-115.743 133.674.043 66.8 115.786z" fill="#00528d"/><path d="M438.433 489.352l-133.674-.043-66.8-115.786 66.874-115.743 133.674.043 66.8 115.786z" fill="#ff0"/><path d="M437.374 720.676l-133.674-.043-66.8-115.786 66.874-115.743 133.674.043 66.8 115.786z" fill="#73c934"/><path d="M638.242 373.81l-133.674-.043-66.8-115.786 66.874-115.743 133.674.043 66.8 115.786z" fill="#df009c"/><path d="M637.128 605.232l-133.674-.043-66.8-115.786 66.874-115.743 133.674.043 66.8 115.786z" fill="#00b397"/><path d="M237.561 374.599l-133.674-.043-66.8-115.786 66.874-115.743 133.674.043 66.8 115.786z" fill="#ea0109"/><path d="M238.145 604.212l-133.674-.043-66.8-115.786 66.874-115.743 133.674.043 66.8 115.786z" fill="#eb7a00"/></g></svg>