<svg width="512" height="512" viewBox="0 0 512 512" xmlns="http://www.w3.org/2000/svg"><title>icon</title><g fill="none"><rect fill="#F05350" width="512" height="512" rx="130"/><path d="M385.515 335.985c-10.04 16.733-22.088 30.12-36.813 40.829-14.056 10.709-30.12 18.741-47.522 23.426-17.402 4.685-34.805 6.693-52.877 6.024-18.072-1.339-35.474-4.685-52.207-11.379-16.733-6.693-32.128-16.064-44.845-28.781-13.387-12.717-23.426-28.112-31.458-46.184-8.032-18.741-12.048-40.16-12.048-64.255 0-24.096 4.016-45.514 12.048-63.586 8.032-18.072 18.741-33.466 31.458-46.184 13.387-12.717 28.112-22.088 44.845-28.781 16.733-6.693 34.136-10.709 52.207-11.379 18.072-.669 35.474 1.339 52.877 6.024 17.402 4.685 33.466 12.717 47.522 23.426 14.056 10.709 26.773 24.096 36.144 40.829 10.04 16.733 16.064 36.144 18.741 58.231h-84.335c-3.347-11.379-8.701-21.418-16.064-28.781-7.363-7.363-16.064-12.717-25.434-16.064-9.371-3.347-19.41-4.016-29.45-2.677s-19.41 4.685-28.112 10.04c-8.701 5.355-15.395 13.387-20.749 23.426-5.355 10.04-8.032 22.088-8.032 36.144 0 14.056 2.677 26.104 8.032 36.144s12.717 18.072 20.749 23.426c8.701 5.355 18.072 9.371 28.112 10.04 10.04 1.339 20.08.669 29.45-2.677 9.371-3.347 18.072-8.701 25.434-16.064 7.363-7.363 12.717-17.402 16.064-28.781h85.005c-2.677 22.088-8.701 41.498-18.741 57.562z" fill="#FCDAD9"/></g></svg>