<svg width="128" height="21" viewBox="0 0 128 21" xmlns="http://www.w3.org/2000/svg"><title>kollectiv</title>
<g fill="#EF4923"><path d="M36.787 9.996l3.749 6.949h-2.578l-3.749-7.026 3.584-6.266h2.542l-3.548 6.342zm-4.718-6.342h2.213v13.291h-2.213v-13.291z"/><path d="M48.802 7.072c0-.779-.658-1.386-1.408-1.386h-.201c-.768 0-1.426.607-1.426 1.386v6.437c0 .778.658 1.405 1.426 1.405h.183c.768 0 1.426-.607 1.426-1.386v-6.456zm2.176 6.342c0 2.032-1.573 3.722-3.548 3.722h-.292c-1.975 0-3.566-1.709-3.566-3.741v-6.209c0-2.032 1.591-3.722 3.566-3.722h.292c1.975 0 3.548 1.69 3.548 3.722v6.228z"/><path d="M56.885 3.654v11.07h4.92v2.222h-7.114v-13.291h2.194"/><path d="M67.858 3.654v11.07h4.919v2.222h-7.114v-13.291h2.194"/><path d="M83.402 3.654v2.222h-4.353v3.019h3.969v2.222h-3.969v3.607h4.481v2.222h-6.656v-13.291h6.529"/><path d="M94.777 13.413c0 2.032-1.536 3.722-3.548 3.722h-.073c-1.993 0-3.603-1.709-3.603-3.741v-6.209c0-2.032 1.609-3.722 3.603-3.722h.073c2.012 0 3.548 1.595 3.548 3.931h-2.194c0-1.025-.622-1.709-1.372-1.709-.805 0-1.408.607-1.408 1.386v6.437c0 .778.604 1.405 1.408 1.405.75 0 1.372-.607 1.372-1.386v-.721h2.194v.607"/><path d="M98.362 3.654h7.553v2.222h-2.67v11.07h-2.232v-11.07h-2.651v-2.222"/><path d="M109.517 3.654h7.187v2.127h-2.469v9.038h2.469v2.126h-7.187v-2.126h2.487v-9.038h-2.487v-2.127"/><path d="M122.647 9.16l1.317 5.601h.256l1.317-5.601v-5.507h2.194v5.81l-2.048 7.481h-3.182l-2.049-7.481v-5.81h2.195v5.507"/></g>
<g><path d="M27.575 17.805h2.542l-1.13 2.977-1.412-2.977" fill="#333"/><path d="M19.261.074h-6.621l9.665 20.708h6.684l-9.728-20.708" fill="#555"/><path d="M2.609 3.051h-2.542l1.13-2.977 1.412 2.977" fill="#333"/><path d="M7.817.074h-6.621l9.665 20.708h6.685l-9.728-20.708" fill="#555"/><path d="M27.575 3.051h2.542l-1.13-2.977-1.412 2.977" fill="#A32A22"/><path d="M19.261 20.782h-6.621l9.665-20.708h6.684l-9.728 20.708" fill="#EF4923"/><path d="M2.609 17.805h-2.542l1.13 2.977 1.412-2.977" fill="#A32A22"/><path d="M7.817 20.782h-6.621l9.665-20.708h6.684l-9.728 20.708" fill="#EF4923"/></g>
</svg>